<svg width="726" height="868" viewBox="0 0 726 868" fill="none" xmlns="http://www.w3.org/2000/svg">
<g filter="url(#filter0_d_874_109)">
<mask id="mask0_874_109" style="mask-type:alpha" maskUnits="userSpaceOnUse" x="333" y="45" width="343" height="768">
<path fill-rule="evenodd" clip-rule="evenodd" d="M333.742 743.355C359.172 743.355 362.144 763.658 362.144 807.259C362.144 814.914 373.812 814.913 373.703 807.259C373.043 760.662 373.703 731.706 401.775 731.706C426.762 731.706 428.122 759.742 429.107 780.045C429.671 791.675 430.112 800.768 434.8 800.602C453.625 799.937 487.971 773.976 484.999 733.37C487.899 680.76 506.844 684.873 542.056 692.516C546.942 693.577 552.142 694.705 557.655 695.76C603.56 700.752 661.685 619.874 655.08 592.249C652.994 583.525 650.513 574.734 648.146 566.349C643.019 548.182 638.428 531.918 639.558 522.354C639.782 520.462 641.42 515.621 643.887 508.332C659.65 461.756 709.236 315.244 639.558 199.839C614.019 146.918 517.1 41.8761 333.742 45.0713V559.964C349.925 559.964 365.287 569.462 376.345 589.253C395.5 623.535 404.747 675.457 333.742 675.457V743.355ZM346.622 450.795C346.622 542.99 591.011 646.501 575.489 450.795C563.269 345.952 355.605 319.526 346.622 450.795Z" fill="#0D0D0D"/>
</mask>
<g mask="url(#mask0_874_109)">
<rect width="768" height="272.516" transform="translate(-188 267) rotate(-30)" fill="#816271"/>
<rect width="768" height="272.516" transform="translate(-51.7419 503.006) rotate(-30)" fill="#816271"/>
<rect width="768" height="272.516" transform="translate(-51.7419 503.006) rotate(-30)" fill="black" fill-opacity="0.2"/>
<rect width="768" height="272.516" transform="translate(84.5161 739.012) rotate(-30)" fill="#816271"/>
<rect width="768" height="272.516" transform="translate(84.5161 739.012) rotate(-30)" fill="black" fill-opacity="0.2"/>
<rect width="768" height="272.516" transform="translate(84.5161 739.012) rotate(-30)" fill="black" fill-opacity="0.2"/>
</g>
<mask id="mask1_874_109" style="mask-type:alpha" maskUnits="userSpaceOnUse" x="50" y="247" width="234" height="338">
<path d="M50.4379 509.224C50.4379 490.792 55.5579 474.749 65.7979 461.096C76.0379 447.443 89.3499 437.032 105.734 429.864C118.705 424.061 133.894 418.259 151.302 412.456C168.71 406.653 182.193 400.509 191.75 394.024C201.307 387.539 206.086 379.859 206.086 370.984V328.488C206.086 317.907 201.819 310.909 193.286 307.496C184.07 303.741 169.734 301.864 150.278 301.864C126.726 301.864 95.6646 306.131 57.0939 314.664V258.344C91.2273 251.176 126.897 247.592 164.102 247.592C204.379 247.592 234.246 253.736 253.702 266.024C273.499 278.312 283.398 298.792 283.398 327.464V373.544C283.398 390.952 278.107 406.141 267.526 419.112C257.286 431.741 243.974 441.299 227.59 447.784C212.23 454.269 196.529 460.072 180.486 465.192C163.078 471.336 149.254 478.163 139.014 485.672C129.115 493.181 124.166 502.056 124.166 512.296V529.192H283.91V585H50.4379V509.224Z" fill="#2A1E0E"/>
</mask>
<g mask="url(#mask1_874_109)">
<rect width="768" height="272.516" transform="translate(-188 268) rotate(-30)" fill="#816271"/>
<rect width="768" height="272.516" transform="translate(-51.7419 504.006) rotate(-30)" fill="#816271"/>
<rect width="768" height="272.516" transform="translate(-51.7419 504.006) rotate(-30)" fill="black" fill-opacity="0.2"/>
<rect width="768" height="272.516" transform="translate(84.5161 740.012) rotate(-30)" fill="#816271"/>
<rect width="768" height="272.516" transform="translate(84.5161 740.012) rotate(-30)" fill="black" fill-opacity="0.2"/>
<rect width="768" height="272.516" transform="translate(84.5161 740.012) rotate(-30)" fill="black" fill-opacity="0.2"/>
</g>
</g>
<defs>
<filter id="filter0_d_874_109" x="0.437927" y="0" width="725.304" height="868" filterUnits="userSpaceOnUse" color-interpolation-filters="sRGB">
<feFlood flood-opacity="0" result="BackgroundImageFix"/>
<feColorMatrix in="SourceAlpha" type="matrix" values="0 0 0 0 0 0 0 0 0 0 0 0 0 0 0 0 0 0 127 0" result="hardAlpha"/>
<feOffset dy="5"/>
<feGaussianBlur stdDeviation="25"/>
<feColorMatrix type="matrix" values="0 0 0 0 0 0 0 0 0 0 0 0 0 0 0 0 0 0 0.5 0"/>
<feBlend mode="normal" in2="BackgroundImageFix" result="effect1_dropShadow_874_109"/>
<feBlend mode="normal" in="SourceGraphic" in2="effect1_dropShadow_874_109" result="shape"/>
</filter>
</defs>
</svg>
